<svg width="85" height="24" viewBox="0 0 85 24" fill="none" xmlns="http://www.w3.org/2000/svg">
<path d="M23.0473 9.3053H16.6328V22.678C16.959 22.7432 18.8707 22.3609 19.7857 22.1615C22.4603 21.1396 23.0745 18.166 23.0473 16.807V14.5239V9.3053Z" fill="#28ACE2"/>
<path d="M6.46889 1.31445H12.7747V5.52739H6.87659C4.96311 5.4839 4.44849 7.26692 4.43037 8.16387V9.74032V16.1549C4.51735 17.0898 5.02834 17.8491 5.27296 18.1118C5.72959 18.3945 6.38735 18.5376 6.65915 18.5739H8.15406H14.2153C14.4762 18.5739 15.0307 18.4108 15.2753 18.3293C15.5145 18.3293 15.8642 17.9487 16.0091 17.7585V22.6237H5.78939C4.94136 22.602 3.64215 22.216 3.09854 22.0258C1.92436 21.6779 1.06909 20.395 0.788226 19.797C0.375087 19.3186 0.0906007 17.3145 0 16.3723V8.16387L0.163081 6.56023C0.184825 4.625 1.34995 3.21707 1.9298 2.755C2.71259 1.84175 5.28202 1.41411 6.46889 1.31445Z" fill="#01589A"/>
<rect x="16.6328" y="1.31433" width="6.41453" height="5.65348" rx="1.52209" fill="#28ACE2"/>
<path d="M33.8027 5.9318C32.3836 5.9318 31.2915 6.43156 30.5265 7.43107C29.7738 8.41825 29.3974 9.70157 29.3974 11.2811C29.3974 12.8482 29.8416 14.1747 30.7301 15.2606C31.6185 16.3465 32.7723 16.8894 34.1914 16.8894C36.0793 16.8894 37.4058 15.9454 38.1709 14.0575L39.4295 14.3351C39.4295 14.4462 39.2691 14.9521 38.9483 15.8529C38.6275 16.7414 38.43 17.1794 38.356 17.1671C37.0727 17.8704 35.5611 18.2221 33.8212 18.2221C31.6741 18.2221 29.9157 17.6236 28.546 16.4267C27.1886 15.2297 26.5099 13.6503 26.5099 11.6883C26.5099 9.46712 27.2133 7.73957 28.62 6.5056C30.0391 5.25929 31.853 4.63614 34.0618 4.63614C35.0366 4.63614 36.0917 4.77187 37.2269 5.04335C37.8069 5.1544 38.3313 5.24695 38.8002 5.32099C38.936 5.6048 39.0038 6.09222 39.0038 6.78324C39.0038 7.47426 38.9668 8.17762 38.8928 8.89332L37.5601 8.74525C37.4737 8.01721 37.301 7.46192 37.0418 7.07939C36.5112 6.31433 35.4315 5.9318 33.8027 5.9318ZM46.0666 18.037L43.1607 18C42.4943 18 41.6922 18.0185 40.7544 18.0555L40.5323 17.056C41.1246 17.0437 41.5133 16.982 41.6984 16.8709C41.8958 16.7599 41.9946 16.5994 41.9946 16.3897L42.0686 6.46858C42.0686 6.24647 41.9822 6.07988 41.8095 5.96882C41.649 5.85777 41.322 5.80224 40.8285 5.80224L40.5878 4.80272C42.0686 4.83974 43.0804 4.85825 43.6234 4.85825C44.1787 4.85825 44.9252 4.83974 45.863 4.80272L46.0852 5.80224C45.4929 5.81458 45.098 5.87627 44.9005 5.98733C44.7155 6.09839 44.6229 6.2588 44.6229 6.46858V15.8899C44.6229 16.5439 44.9252 16.8709 45.5299 16.8709H47.2698C48.9356 16.8709 50.0709 15.9825 50.6755 14.2056L51.675 14.4092C51.675 14.6189 51.4961 15.2729 51.1383 16.3712C50.7804 17.4571 50.5151 18 50.3423 18L46.0666 18.037ZM56.0032 9.98538V16.5933C56.0032 16.7907 56.0711 16.9388 56.2068 17.0375C56.3549 17.1239 56.651 17.1671 57.0953 17.1671L57.2989 18.0555C56.0032 18.0185 55.1024 18 54.5965 18C54.1029 18 53.4427 18.0185 52.616 18.0555L52.4309 17.1671C52.9368 17.1547 53.2761 17.1054 53.4489 17.019C53.6217 16.9203 53.708 16.7784 53.708 16.5933V12.151C53.708 11.8672 53.634 11.6512 53.4859 11.5032C53.3378 11.3427 53.0417 11.2625 52.5975 11.2625H52.3568L52.0977 10.5037C53.2083 10.2445 54.3065 9.92986 55.3924 9.55967C55.6515 9.55967 55.8181 9.59052 55.8922 9.65221C55.9662 9.70157 56.0032 9.81263 56.0032 9.98538ZM54.8186 7.80126C54.4854 7.80126 54.1955 7.69021 53.9487 7.46809C53.7019 7.24598 53.5785 6.96217 53.5785 6.61666C53.5785 6.27115 53.708 5.96882 53.9672 5.70969C54.2386 5.45056 54.541 5.32099 54.8741 5.32099C55.2073 5.32099 55.4973 5.43205 55.7441 5.65416C55.9909 5.87627 56.1143 6.16009 56.1143 6.5056C56.1143 6.85111 55.9785 7.15343 55.7071 7.41256C55.4479 7.6717 55.1518 7.80126 54.8186 7.80126ZM65.6714 13.6318H60.6368C60.6368 14.3475 60.7725 15.02 61.044 15.6493C61.2044 16.0195 61.4636 16.3218 61.8214 16.5563C62.1916 16.7907 62.6112 16.9079 63.0801 16.9079C63.549 16.9079 63.9809 16.8154 64.3757 16.6303C64.7829 16.4329 65.0544 16.2663 65.1901 16.1305C65.3382 15.9825 65.4431 15.9454 65.5048 16.0195L65.801 16.4267C65.3814 16.945 64.857 17.3768 64.2277 17.7224C63.6107 18.0555 63.006 18.2221 62.4137 18.2221C61.081 18.2221 60.0507 17.8458 59.3226 17.093C58.5946 16.328 58.2306 15.3038 58.2306 14.0205C58.2306 12.7248 58.6378 11.6821 59.4522 10.8924C60.2666 10.1026 61.1983 9.70774 62.2471 9.70774C63.296 9.70774 64.1536 10.0101 64.82 10.6147C65.4986 11.2194 65.838 12.1325 65.838 13.3541C65.838 13.5392 65.7824 13.6318 65.6714 13.6318ZM63.7094 12.5212C63.7094 11.3983 63.2466 10.8368 62.3212 10.8368C61.8646 10.8368 61.4944 11.0096 61.2106 11.3551C60.9268 11.7006 60.7602 12.0893 60.7108 12.5212H63.7094ZM70.2356 10.0409C70.2479 10.1273 70.2541 10.2013 70.2541 10.263C70.2541 10.3247 70.2603 10.4173 70.2726 10.5407C70.2849 10.6641 70.2911 10.7566 70.2911 10.8183C71.2289 10.3247 71.9138 10.0162 72.3457 9.89284C72.7775 9.76944 73.1477 9.70774 73.4562 9.70774C74.1719 9.70774 74.7519 9.96688 75.1961 10.4851C75.6403 11.0034 75.8625 11.7561 75.8625 12.7433V16.5933C75.8625 16.7043 75.8686 16.7969 75.881 16.8709C75.9057 16.9326 75.9797 17.0005 76.1031 17.0745C76.2265 17.1362 76.4054 17.1671 76.6399 17.1671L76.8435 18.0555C75.5478 18.0185 74.7334 18 74.4002 18C74.067 18 73.4871 18.0185 72.6603 18.0555L72.4752 17.1671C72.8948 17.1547 73.1786 17.1054 73.3267 17.019C73.4747 16.9203 73.5549 16.7784 73.5673 16.5933V13.2986C73.5673 12.6446 73.4562 12.1633 73.2341 11.8548C73.0243 11.534 72.6603 11.3736 72.1421 11.3736C71.6361 11.3736 71.05 11.5155 70.3836 11.7993V16.5933C70.3836 16.7043 70.3898 16.7969 70.4022 16.8709C70.4268 16.9326 70.5009 17.0005 70.6243 17.0745C70.7477 17.1362 70.9266 17.1671 71.161 17.1671L71.3647 18.0555C70.069 18.0185 69.2546 18 68.9214 18C68.5882 18 68.0083 18.0185 67.1815 18.0555L66.9964 17.1671C67.416 17.1547 67.6998 17.1054 67.8478 17.019C67.9959 16.9203 68.0761 16.7784 68.0885 16.5933V12.151C68.0885 11.8548 68.0206 11.6512 67.8849 11.5402C67.7491 11.4168 67.5764 11.3551 67.3666 11.3551C67.1692 11.3551 67.0211 11.3613 66.9224 11.3736L66.6632 10.6147C67.4283 10.4296 68.4648 10.0779 69.7728 9.55967C69.9333 9.55967 70.032 9.59669 70.069 9.67072C70.1183 9.73242 70.1554 9.78795 70.18 9.83731C70.2047 9.88667 70.2232 9.95454 70.2356 10.0409ZM80.8236 15.3161C80.8236 15.8097 80.9161 16.1984 81.1012 16.4822C81.2987 16.766 81.5516 16.9079 81.8601 16.9079C82.1686 16.9079 82.5326 16.7475 82.9522 16.4267C83.0509 16.3527 83.1249 16.3465 83.1743 16.4082L83.5445 16.9079C83.2237 17.2164 82.9707 17.4447 82.7856 17.5928C82.255 18 81.6257 18.2036 80.8976 18.2036C80.1696 18.2036 79.5835 17.963 79.1392 17.4817C78.7073 16.9881 78.4914 16.439 78.4914 15.8344V11.207H77.5659L77.4734 10.5222C78.1521 10.3 78.6641 10.0039 79.0097 9.6337C79.3675 9.25117 79.7007 8.75142 80.0092 8.13443H80.4534C80.5768 8.13443 80.657 8.15911 80.694 8.20847C80.731 8.25783 80.7496 8.34421 80.7496 8.46761L80.8236 10.0409H83.1743C83.199 10.152 83.2113 10.3062 83.2113 10.5037C83.2113 10.7011 83.1311 10.9355 82.9707 11.207H80.8421L80.8236 15.3161Z" fill="#01589A"/>
</svg>
