<svg width="386" height="110" viewBox="0 0 386 110" fill="none" xmlns="http://www.w3.org/2000/svg">
<path d="M105.703 42.6427H76.2852V103.97C77.781 104.27 86.548 102.516 90.7445 101.602C103.01 96.9152 105.827 83.2786 105.703 77.0461V66.5755V42.6427Z" fill="white"/>
<path d="M29.6667 5.99561H58.5854V25.3163H31.5364C22.7611 25.1169 20.401 33.2939 20.3179 37.4074V44.6371V74.0544C20.7168 78.3424 23.0602 81.8243 24.1821 83.0292C26.2762 84.3256 29.2927 84.9821 30.5392 85.1483H37.395H65.1919C66.3885 85.1483 68.9314 84.4004 70.0532 84.0264C71.1501 84.0264 72.754 82.2813 73.4188 81.4088V103.721H26.5504C22.6613 103.621 16.7031 101.851 14.2101 100.979C8.82521 99.3833 4.90289 93.4998 3.61485 90.7575C1.72017 88.5637 0.4155 79.3728 0 75.0516V37.4074L0.747899 30.053C0.847619 21.178 6.19094 14.7211 8.85014 12.602C12.4401 8.41381 24.2236 6.45265 29.6667 5.99561Z" fill="white"/>
<rect x="76.2852" y="5.99567" width="29.4174" height="25.9272" rx="6.98039" fill="white"/>
<path d="M155.012 25.6546C148.504 25.6546 143.496 27.9465 139.987 32.5304C136.535 37.0576 134.809 42.943 134.809 50.1866C134.809 57.3735 136.847 63.457 140.921 68.4369C144.996 73.4169 150.287 75.9069 156.795 75.9069C165.453 75.9069 171.537 71.5777 175.045 62.9194L180.817 64.1927C180.817 64.702 180.082 67.0222 178.61 71.1533C177.139 75.2278 176.234 77.2367 175.894 77.1802C170.009 80.4058 163.076 82.0186 155.097 82.0186C145.25 82.0186 137.186 79.274 130.905 73.7847C124.68 68.2955 121.567 61.0519 121.567 52.054C121.567 41.8678 124.793 33.9451 131.244 28.2861C137.752 22.5705 146.071 19.7126 156.201 19.7126C160.671 19.7126 165.51 20.3351 170.716 21.5801C173.376 22.0894 175.781 22.5139 177.931 22.8534C178.554 24.155 178.865 26.3903 178.865 29.5594C178.865 32.7284 178.695 35.9541 178.356 39.2363L172.244 38.5572C171.848 35.2184 171.056 32.6718 169.867 30.9175C167.434 27.4089 162.482 25.6546 155.012 25.6546ZM211.255 81.1698L197.928 81C194.873 81 191.194 81.0849 186.893 81.2547L185.875 76.6708C188.591 76.6142 190.374 76.3313 191.222 75.822C192.128 75.3127 192.581 74.577 192.581 73.615L192.92 28.1163C192.92 27.0977 192.524 26.3337 191.732 25.8244C190.996 25.3151 189.496 25.0604 187.233 25.0604L186.129 20.4766C192.92 20.6464 197.561 20.7313 200.051 20.7313C202.597 20.7313 206.021 20.6464 210.322 20.4766L211.34 25.0604C208.624 25.117 206.813 25.4 205.908 25.9093C205.059 26.4186 204.634 27.1543 204.634 28.1163V71.323C204.634 74.3223 206.021 75.822 208.794 75.822H216.773C224.413 75.822 229.619 71.7475 232.392 63.5985L236.976 64.5322C236.976 65.4942 236.155 68.4935 234.514 73.5301C232.873 78.51 231.656 81 230.864 81L211.255 81.1698ZM256.825 44.2446V74.5487C256.825 75.4541 257.136 76.1332 257.759 76.586C258.438 76.9821 259.796 77.1802 261.833 77.1802L262.767 81.2547C256.825 81.0849 252.694 81 250.374 81C248.11 81 245.083 81.0849 241.291 81.2547L240.442 77.1802C242.762 77.1236 244.319 76.8972 245.111 76.5011C245.903 76.0483 246.299 75.3976 246.299 74.5487V54.1762C246.299 52.8746 245.96 51.8843 245.281 51.2052C244.602 50.4695 243.243 50.1017 241.206 50.1017H240.103L238.914 46.6214C244.007 45.433 249.044 43.9899 254.024 42.2922C255.212 42.2922 255.976 42.4337 256.316 42.7166C256.655 42.943 256.825 43.4523 256.825 44.2446ZM251.392 34.2281C249.864 34.2281 248.535 33.7188 247.403 32.7001C246.271 31.6815 245.705 30.3799 245.705 28.7954C245.705 27.2109 246.299 25.8244 247.488 24.636C248.733 23.4476 250.119 22.8534 251.647 22.8534C253.175 22.8534 254.505 23.3627 255.637 24.3814C256.768 25.4 257.334 26.7016 257.334 28.2861C257.334 29.8706 256.712 31.2571 255.467 32.4455C254.279 33.6339 252.92 34.2281 251.392 34.2281ZM301.164 60.967H278.075C278.075 64.2493 278.697 67.3334 279.942 70.2195C280.678 71.9172 281.867 73.3037 283.508 74.3789C285.205 75.4541 287.129 75.9918 289.28 75.9918C291.43 75.9918 293.411 75.5673 295.222 74.7185C297.089 73.813 298.334 73.0491 298.957 72.4266C299.636 71.7475 300.117 71.5777 300.4 71.9172L301.758 73.7847C299.834 76.1615 297.429 78.1422 294.543 79.7267C291.713 81.2547 288.94 82.0186 286.224 82.0186C280.112 82.0186 275.387 80.2926 272.048 76.8406C268.709 73.332 267.04 68.635 267.04 62.7496C267.04 56.8076 268.907 52.0257 272.642 48.404C276.377 44.7822 280.65 42.9713 285.46 42.9713C290.27 42.9713 294.203 44.3577 297.259 47.1307C300.372 49.9036 301.928 54.0913 301.928 59.6937C301.928 60.5426 301.673 60.967 301.164 60.967ZM292.166 55.8739C292.166 50.7242 290.044 48.1493 285.8 48.1493C283.706 48.1493 282.008 48.9416 280.706 50.5261C279.405 52.1106 278.641 53.8932 278.415 55.8739H292.166ZM322.095 44.4992C322.152 44.8954 322.18 45.2349 322.18 45.5179C322.18 45.8008 322.209 46.2252 322.265 46.7911C322.322 47.357 322.35 47.7815 322.35 48.0644C326.651 45.8008 329.792 44.386 331.772 43.8201C333.753 43.2542 335.451 42.9713 336.865 42.9713C340.148 42.9713 342.807 44.1597 344.845 46.5365C346.882 48.9133 347.901 52.3653 347.901 56.8925V74.5487C347.901 75.058 347.929 75.4824 347.985 75.822C348.099 76.1049 348.438 76.4162 349.004 76.7557C349.57 77.0387 350.391 77.1802 351.466 77.1802L352.4 81.2547C346.458 81.0849 342.723 81 341.195 81C339.667 81 337.007 81.0849 333.215 81.2547L332.367 77.1802C334.291 77.1236 335.592 76.8972 336.271 76.5011C336.95 76.0483 337.318 75.3976 337.375 74.5487V59.4391C337.375 56.4398 336.865 54.2328 335.847 52.818C334.885 51.3467 333.215 50.611 330.839 50.611C328.518 50.611 325.83 51.2618 322.774 52.5633V74.5487C322.774 75.058 322.803 75.4824 322.859 75.822C322.973 76.1049 323.312 76.4162 323.878 76.7557C324.444 77.0387 325.264 77.1802 326.34 77.1802L327.273 81.2547C321.331 81.0849 317.596 81 316.069 81C314.541 81 311.881 81.0849 308.089 81.2547L307.24 77.1802C309.165 77.1236 310.466 76.8972 311.145 76.5011C311.824 76.0483 312.192 75.3976 312.249 74.5487V54.1762C312.249 52.818 311.937 51.8843 311.315 51.375C310.692 50.809 309.9 50.5261 308.938 50.5261C308.033 50.5261 307.354 50.5544 306.901 50.611L305.713 47.1307C309.221 46.2818 313.975 44.669 319.973 42.2922C320.709 42.2922 321.162 42.462 321.331 42.8015C321.558 43.0845 321.728 43.3391 321.841 43.5655C321.954 43.7918 322.039 44.1031 322.095 44.4992ZM370.653 68.6916C370.653 70.9552 371.077 72.7378 371.926 74.0394C372.831 75.341 373.991 75.9918 375.406 75.9918C376.821 75.9918 378.49 75.2561 380.414 73.7847C380.867 73.4452 381.207 73.4169 381.433 73.6998L383.131 75.9918C381.659 77.4065 380.499 78.4534 379.65 79.1325C377.217 81 374.331 81.9337 370.992 81.9337C367.653 81.9337 364.965 80.8302 362.928 78.6232C360.947 76.3596 359.957 73.8413 359.957 71.0684V49.847H355.713L355.288 46.7062C358.401 45.6876 360.749 44.3295 362.334 42.6317C363.975 40.8774 365.503 38.5855 366.918 35.756H368.955C369.521 35.756 369.889 35.8692 370.058 36.0956C370.228 36.3219 370.313 36.718 370.313 37.284L370.653 44.4992H381.433C381.546 45.0085 381.603 45.7159 381.603 46.6214C381.603 47.5268 381.235 48.602 380.499 49.847H370.737L370.653 68.6916Z" fill="white"/>
</svg>
