<svg width="125" height="48" viewBox="0 0 125 48" fill="none" xmlns="http://www.w3.org/2000/svg">
<path d="M0.5 4C0.5 2.067 2.067 0.5 4 0.5H121C122.933 0.5 124.5 2.067 124.5 4V44C124.5 45.933 122.933 47.5 121 47.5H4C2.067 47.5 0.5 45.933 0.5 44V4Z" stroke="#01589A"/>
<path d="M25.1477 30V18.3636H27.2557V28.233H32.3807V30H25.1477ZM37.9261 30.1705C37.0739 30.1705 36.3352 29.983 35.7102 29.608C35.0852 29.233 34.6004 28.7083 34.2557 28.0341C33.9148 27.3598 33.7443 26.572 33.7443 25.6705C33.7443 24.7689 33.9148 23.9792 34.2557 23.3011C34.6004 22.6231 35.0852 22.0966 35.7102 21.7216C36.3352 21.3466 37.0739 21.1591 37.9261 21.1591C38.7784 21.1591 39.517 21.3466 40.142 21.7216C40.767 22.0966 41.25 22.6231 41.5909 23.3011C41.9356 23.9792 42.108 24.7689 42.108 25.6705C42.108 26.572 41.9356 27.3598 41.5909 28.0341C41.25 28.7083 40.767 29.233 40.142 29.608C39.517 29.983 38.7784 30.1705 37.9261 30.1705ZM37.9375 28.5227C38.3996 28.5227 38.786 28.3958 39.0966 28.142C39.4072 27.8845 39.6383 27.5398 39.7898 27.108C39.9451 26.6761 40.0227 26.1951 40.0227 25.6648C40.0227 25.1307 39.9451 24.6477 39.7898 24.2159C39.6383 23.7803 39.4072 23.4337 39.0966 23.1761C38.786 22.9186 38.3996 22.7898 37.9375 22.7898C37.464 22.7898 37.0701 22.9186 36.7557 23.1761C36.4451 23.4337 36.2121 23.7803 36.0568 24.2159C35.9053 24.6477 35.8295 25.1307 35.8295 25.6648C35.8295 26.1951 35.9053 26.6761 36.0568 27.108C36.2121 27.5398 36.4451 27.8845 36.7557 28.142C37.0701 28.3958 37.464 28.5227 37.9375 28.5227ZM47.6491 33.4545C46.9105 33.4545 46.276 33.3542 45.7457 33.1534C45.2154 32.9564 44.7893 32.6913 44.4673 32.358C44.1454 32.0246 43.9219 31.6553 43.7969 31.25L45.6491 30.8011C45.7325 30.9716 45.8537 31.1402 46.0128 31.3068C46.1719 31.4773 46.3859 31.6174 46.6548 31.7273C46.9276 31.8409 47.2704 31.8977 47.6832 31.8977C48.2666 31.8977 48.7495 31.7557 49.1321 31.4716C49.5147 31.1913 49.706 30.7292 49.706 30.0852V28.4318H49.6037C49.4976 28.6439 49.3423 28.8617 49.1378 29.0852C48.937 29.3087 48.67 29.4962 48.3366 29.6477C48.0071 29.7992 47.5923 29.875 47.0923 29.875C46.4219 29.875 45.8139 29.7178 45.2685 29.4034C44.7268 29.0852 44.295 28.6117 43.973 27.983C43.6548 27.3504 43.4957 26.5587 43.4957 25.608C43.4957 24.6496 43.6548 23.8409 43.973 23.1818C44.295 22.5189 44.7287 22.017 45.2741 21.6761C45.8196 21.3314 46.4276 21.1591 47.098 21.1591C47.6094 21.1591 48.0298 21.2462 48.3594 21.4205C48.6927 21.5909 48.9579 21.7973 49.1548 22.0398C49.3518 22.2784 49.5014 22.5038 49.6037 22.7159H49.7173V21.2727H51.7457V30.142C51.7457 30.8883 51.5677 31.5057 51.2116 31.9943C50.8556 32.483 50.3688 32.8485 49.7514 33.0909C49.134 33.3333 48.4332 33.4545 47.6491 33.4545ZM47.6662 28.2614C48.1018 28.2614 48.473 28.1553 48.7798 27.9432C49.0866 27.7311 49.3196 27.4261 49.4787 27.0284C49.6378 26.6307 49.7173 26.1534 49.7173 25.5966C49.7173 25.0473 49.6378 24.5663 49.4787 24.1534C49.3234 23.7405 49.0923 23.4205 48.7855 23.1932C48.4825 22.9621 48.1094 22.8466 47.6662 22.8466C47.2079 22.8466 46.8253 22.9659 46.5185 23.2045C46.2116 23.4432 45.9806 23.7708 45.8253 24.1875C45.67 24.6004 45.5923 25.0701 45.5923 25.5966C45.5923 26.1307 45.67 26.5985 45.8253 27C45.9844 27.3977 46.2173 27.7083 46.5241 27.9318C46.8348 28.1515 47.2154 28.2614 47.6662 28.2614ZM53.8537 30V21.2727H55.9105V30H53.8537ZM54.8878 20.0341C54.562 20.0341 54.2817 19.9261 54.0469 19.7102C53.812 19.4905 53.6946 19.2273 53.6946 18.9205C53.6946 18.6098 53.812 18.3466 54.0469 18.1307C54.2817 17.911 54.562 17.8011 54.8878 17.8011C55.2173 17.8011 55.4976 17.911 55.7287 18.1307C55.9635 18.3466 56.081 18.6098 56.081 18.9205C56.081 19.2273 55.9635 19.4905 55.7287 19.7102C55.4976 19.9261 55.2173 20.0341 54.8878 20.0341ZM60.0824 24.8864V30H58.0256V21.2727H59.9915V22.7557H60.0938C60.2945 22.267 60.6146 21.8788 61.054 21.5909C61.4972 21.303 62.0445 21.1591 62.696 21.1591C63.2983 21.1591 63.8229 21.2879 64.2699 21.5455C64.7206 21.803 65.0691 22.1761 65.3153 22.6648C65.5653 23.1534 65.6884 23.7462 65.6847 24.4432V30H63.6278V24.7614C63.6278 24.178 63.4763 23.7216 63.1733 23.392C62.8741 23.0625 62.4593 22.8977 61.929 22.8977C61.5691 22.8977 61.2491 22.9773 60.9688 23.1364C60.6922 23.2917 60.4744 23.517 60.3153 23.8125C60.16 24.108 60.0824 24.4659 60.0824 24.8864Z" fill="#01589A"/>
<path d="M92.75 15.75H96.4167C96.9029 15.75 97.3692 15.9432 97.713 16.287C98.0568 16.6308 98.25 17.0971 98.25 17.5833V30.4167C98.25 30.9029 98.0568 31.3692 97.713 31.713C97.3692 32.0568 96.9029 32.25 96.4167 32.25H92.75M88.1667 28.5833L92.75 24M92.75 24L88.1667 19.4167M92.75 24H81.75" stroke="#115EA5" stroke-width="2" stroke-linecap="round" stroke-linejoin="round"/>
</svg>
