<svg width="22" height="22" viewBox="0 0 22 22" fill="none" xmlns="http://www.w3.org/2000/svg">
<path d="M8.11742 4.48671L8.11742 4.48671C8.04419 4.41349 8.04419 4.29476 8.11742 4.22154C8.19064 4.14832 8.30936 4.14832 8.38258 4.22154C8.38258 4.22154 8.38258 4.22154 8.38258 4.22154L15.0284 10.8674L15.323 10.5728L15.0284 10.8674C15.1016 10.9406 15.1016 11.0593 15.0284 11.1325L8.38258 17.7783L8.38257 17.7784C8.30935 17.8516 8.19064 17.8516 8.11742 17.7784C8.04419 17.7051 8.04419 17.5865 8.11742 17.5132L14.2771 11.3535L14.6306 11L14.2771 10.6464L8.11742 4.48671Z" fill="#666666" stroke="#404040"/>
</svg>
