<svg width="264" height="93" viewBox="0 0 264 93" fill="none" xmlns="http://www.w3.org/2000/svg">
<path d="M0 4C0 1.79086 1.79086 0 4 0H260C262.209 0 264 1.79086 264 4V89C264 91.2091 262.209 93 260 93H4C1.79086 93 0 91.2091 0 89V4Z" fill="white"/>
<path d="M107.887 43.0836H99.7539V60.0389C100.167 60.1216 102.591 59.6368 103.751 59.3841C107.143 58.0883 107.921 54.3182 107.887 52.5951V49.7003V43.0836Z" fill="#28ACE2"/>
<path d="M86.866 32.9518H94.8612V38.2934H87.3829C84.9568 38.2382 84.3043 40.4989 84.2814 41.6362V43.635V51.768C84.3916 52.9535 85.0395 53.9161 85.3497 54.2493C85.9286 54.6077 86.7626 54.7892 87.1072 54.8351H89.0026H96.6876C97.0185 54.8351 97.7215 54.6283 98.0317 54.5249C98.3349 54.5249 98.7783 54.0425 98.9621 53.8012V59.9699H86.0045C84.9292 59.9424 83.282 59.453 82.5927 59.2118C81.104 58.7707 80.0196 57.1441 79.6635 56.3859C79.1396 55.7794 78.7789 53.2384 78.6641 52.0437V41.6362L78.8708 39.6029C78.8984 37.1492 80.3757 35.3641 81.1109 34.7783C82.1034 33.6203 85.3612 33.0781 86.866 32.9518Z" fill="#01589A"/>
<rect x="99.7539" y="32.9518" width="8.13301" height="7.16808" rx="1.92987" fill="#28ACE2"/>
<path d="M121.521 38.1987C119.722 38.1987 118.337 38.8323 117.367 40.0996C116.413 41.3512 115.936 42.9784 115.936 44.981C115.936 46.968 116.499 48.6499 117.625 50.0267C118.752 51.4035 120.215 52.0919 122.014 52.0919C124.408 52.0919 126.09 50.895 127.06 48.5013L128.656 48.8533C128.656 48.9941 128.452 49.6356 128.045 50.7777C127.639 51.9042 127.388 52.4596 127.294 52.4439C125.667 53.3357 123.751 53.7816 121.545 53.7816C118.822 53.7816 116.593 53.0228 114.856 51.5052C113.135 49.9876 112.275 47.985 112.275 45.4973C112.275 42.6811 113.166 40.4907 114.95 38.9262C116.749 37.346 119.049 36.5559 121.85 36.5559C123.086 36.5559 124.423 36.728 125.863 37.0722C126.598 37.213 127.263 37.3303 127.858 37.4242C128.03 37.7841 128.116 38.4021 128.116 39.2782C128.116 40.1544 128.069 41.0462 127.975 41.9536L126.285 41.7659C126.176 40.8428 125.957 40.1387 125.628 39.6537C124.955 38.6837 123.586 38.1987 121.521 38.1987ZM137.071 53.5469L133.386 53.5C132.541 53.5 131.524 53.5235 130.335 53.5704L130.054 52.3031C130.805 52.2875 131.298 52.2092 131.532 52.0684C131.783 51.9276 131.908 51.7242 131.908 51.4583L132.002 38.8793C132.002 38.5976 131.892 38.3864 131.673 38.2456C131.47 38.1048 131.055 38.0344 130.429 38.0344L130.124 36.7671C132.002 36.814 133.285 36.8375 133.973 36.8375C134.677 36.8375 135.624 36.814 136.813 36.7671L137.094 38.0344C136.343 38.05 135.843 38.1283 135.592 38.2691C135.358 38.4099 135.24 38.6133 135.24 38.8793V50.8246C135.24 51.6538 135.624 52.0684 136.39 52.0684H138.596C140.708 52.0684 142.148 50.942 142.914 48.689L144.182 48.9472C144.182 49.2131 143.955 50.0423 143.501 51.4348C143.047 52.8116 142.711 53.5 142.492 53.5L137.071 53.5469ZM149.669 43.3382V51.7164C149.669 51.9667 149.755 52.1545 149.928 52.2796C150.115 52.3892 150.491 52.4439 151.054 52.4439L151.312 53.5704C149.669 53.5235 148.527 53.5 147.886 53.5C147.26 53.5 146.423 53.5235 145.375 53.5704L145.14 52.4439C145.781 52.4283 146.212 52.3657 146.431 52.2562C146.65 52.131 146.759 51.9511 146.759 51.7164V46.084C146.759 45.7242 146.665 45.4504 146.478 45.2626C146.29 45.0592 145.914 44.9575 145.351 44.9575H145.046L144.718 43.9953C146.126 43.6668 147.518 43.2678 148.895 42.7985C149.223 42.7985 149.435 42.8376 149.529 42.9158C149.622 42.9784 149.669 43.1192 149.669 43.3382ZM148.167 40.569C147.745 40.569 147.377 40.4282 147.064 40.1465C146.751 39.8649 146.595 39.5051 146.595 39.067C146.595 38.6289 146.759 38.2456 147.088 37.9171C147.432 37.5885 147.815 37.4242 148.238 37.4242C148.66 37.4242 149.028 37.565 149.341 37.8467C149.654 38.1283 149.81 38.4881 149.81 38.9262C149.81 39.3643 149.638 39.7476 149.294 40.0761C148.965 40.4047 148.59 40.569 148.167 40.569ZM161.928 47.9615H155.544C155.544 48.8689 155.716 49.7216 156.061 50.5195C156.264 50.9889 156.593 51.3722 157.046 51.6695C157.516 51.9667 158.048 52.1154 158.642 52.1154C159.237 52.1154 159.784 51.998 160.285 51.7633C160.801 51.513 161.145 51.3018 161.318 51.1297C161.505 50.942 161.638 50.895 161.716 50.9889L162.092 51.5052C161.56 52.1623 160.895 52.7099 160.097 53.148C159.315 53.5704 158.548 53.7816 157.797 53.7816C156.108 53.7816 154.801 53.3044 153.878 52.3501C152.955 51.38 152.493 50.0815 152.493 48.4543C152.493 46.8115 153.01 45.4895 154.042 44.4882C155.075 43.4869 156.256 42.9862 157.586 42.9862C158.916 42.9862 160.003 43.3695 160.848 44.1362C161.709 44.9028 162.139 46.0606 162.139 47.6095C162.139 47.8441 162.069 47.9615 161.928 47.9615ZM159.44 46.5534C159.44 45.1296 158.853 44.4178 157.68 44.4178C157.101 44.4178 156.632 44.6368 156.272 45.0749C155.912 45.513 155.701 46.0058 155.638 46.5534H159.44ZM167.715 43.4086C167.73 43.5182 167.738 43.612 167.738 43.6903C167.738 43.7685 167.746 43.8858 167.762 44.0423C167.777 44.1987 167.785 44.3161 167.785 44.3943C168.974 43.7685 169.842 43.3773 170.39 43.2209C170.938 43.0644 171.407 42.9862 171.798 42.9862C172.706 42.9862 173.441 43.3148 174.004 43.9719C174.567 44.629 174.849 45.5834 174.849 46.835V51.7164C174.849 51.8572 174.857 51.9746 174.872 52.0684C174.904 52.1467 174.998 52.2327 175.154 52.3266C175.311 52.4048 175.537 52.4439 175.835 52.4439L176.093 53.5704C174.45 53.5235 173.417 53.5 172.995 53.5C172.573 53.5 171.837 53.5235 170.789 53.5704L170.554 52.4439C171.086 52.4283 171.446 52.3657 171.634 52.2562C171.822 52.131 171.923 51.9511 171.939 51.7164V47.5391C171.939 46.7098 171.798 46.0997 171.517 45.7085C171.251 45.3017 170.789 45.0984 170.132 45.0984C169.49 45.0984 168.747 45.2783 167.902 45.6381V51.7164C167.902 51.8572 167.91 51.9746 167.926 52.0684C167.957 52.1467 168.051 52.2327 168.207 52.3266C168.364 52.4048 168.591 52.4439 168.888 52.4439L169.146 53.5704C167.503 53.5235 166.471 53.5 166.048 53.5C165.626 53.5 164.891 53.5235 163.842 53.5704L163.608 52.4439C164.14 52.4283 164.499 52.3657 164.687 52.2562C164.875 52.131 164.977 51.9511 164.992 51.7164V46.084C164.992 45.7085 164.906 45.4504 164.734 45.3096C164.562 45.1531 164.343 45.0749 164.077 45.0749C163.827 45.0749 163.639 45.0827 163.514 45.0984L163.185 44.1362C164.155 43.9015 165.47 43.4556 167.128 42.7985C167.331 42.7985 167.456 42.8454 167.503 42.9393C167.566 43.0175 167.613 43.0879 167.644 43.1505C167.676 43.2131 167.699 43.2991 167.715 43.4086ZM181.139 50.0971C181.139 50.7229 181.257 51.2158 181.491 51.5756C181.742 51.9354 182.062 52.1154 182.453 52.1154C182.845 52.1154 183.306 51.912 183.838 51.5052C183.963 51.4113 184.057 51.4035 184.12 51.4817L184.589 52.1154C184.182 52.5065 183.862 52.796 183.627 52.9837C182.954 53.5 182.156 53.7582 181.233 53.7582C180.31 53.7582 179.567 53.4531 179.004 52.8429C178.456 52.2171 178.182 51.5208 178.182 50.7542V44.8871H177.009L176.891 44.0188C177.752 43.7372 178.401 43.3617 178.839 42.8923C179.293 42.4073 179.716 41.7737 180.107 40.9914H180.67C180.826 40.9914 180.928 41.0227 180.975 41.0853C181.022 41.1479 181.045 41.2574 181.045 41.4138L181.139 43.4086H184.12C184.151 43.5494 184.167 43.745 184.167 43.9953C184.167 44.2457 184.065 44.5429 183.862 44.8871H181.163L181.139 50.0971Z" fill="#01589A"/>
</svg>
