<svg width="87" height="87" viewBox="0 0 87 87" fill="none" xmlns="http://www.w3.org/2000/svg">
<path d="M0 3.99999C0 1.79086 1.79086 0 4 0H82.6667C84.8758 0 86.6667 1.79086 86.6667 4V82.6667C86.6667 84.8758 84.8758 86.6667 82.6667 86.6667H3.99999C1.79086 86.6667 0 84.8758 0 82.6667V3.99999Z" fill="#CCDEEB"/>
<path d="M10 30C10 18.9543 18.9543 10 30 10H56.6667C67.7124 10 76.6667 18.9543 76.6667 30V56.6667C76.6667 67.7124 67.7124 76.6667 56.6667 76.6667H30C18.9543 76.6667 10 67.7124 10 56.6667V30Z" fill="#01589A"/>
<path d="M49.2721 29.4753C50.1604 29.856 50.572 30.8847 50.1912 31.7731L39.6919 56.2731C39.3111 57.1614 38.2825 57.573 37.3941 57.1924C36.5057 56.8116 36.0942 55.7828 36.4749 54.8945L46.9743 30.3945C47.3551 29.5061 48.3838 29.0946 49.2721 29.4753ZM35.8841 36.9126C36.5307 37.631 36.4724 38.7376 35.754 39.3839L31.366 43.3333L35.754 47.2825C36.4724 47.9291 36.5307 49.0355 35.8841 49.754C35.2376 50.4724 34.131 50.5305 33.4127 49.8842L27.5793 44.6339C27.2106 44.3021 27 43.8294 27 43.3333C27 42.8373 27.2106 42.3643 27.5793 42.0325L33.4127 36.7825C34.131 36.136 35.2376 36.1942 35.8841 36.9126ZM50.7825 36.9126C50.1359 37.631 50.1943 38.7376 50.9127 39.3839L55.3008 43.3333L50.9127 47.2825C50.1943 47.9291 50.1359 49.0355 50.7825 49.754C51.4291 50.4724 52.5355 50.5305 53.254 49.8842L59.0873 44.6339C59.4562 44.3021 59.6667 43.8294 59.6667 43.3333C59.6667 42.8373 59.4562 42.3643 59.0873 42.0325L53.254 36.7825C52.5355 36.136 51.4291 36.1942 50.7825 36.9126ZM66.6667 43.3333C66.6667 30.4467 56.2199 20 43.3333 20C30.4467 20 20 30.4467 20 43.3333C20 56.2199 30.4467 66.6667 43.3333 66.6667C56.2199 66.6667 66.6667 56.2199 66.6667 43.3333ZM23.5 43.3333C23.5 32.3797 32.3797 23.5 43.3333 23.5C54.2869 23.5 63.1667 32.3797 63.1667 43.3333C63.1667 54.2869 54.2869 63.1667 43.3333 63.1667C32.3797 63.1667 23.5 54.2869 23.5 43.3333Z" fill="white"/>
</svg>
