<svg width="48" height="48" viewBox="0 0 48 48" fill="none" xmlns="http://www.w3.org/2000/svg">
<path d="M18 6H8C6.89543 6 6 6.89543 6 8V22C6 23.1046 6.89543 24 8 24H18C19.1046 24 20 23.1046 20 22V8C20 6.89543 19.1046 6 18 6Z" stroke="white" stroke-width="3" stroke-linecap="round" stroke-linejoin="round"/>
<path d="M40 6H30C28.8954 6 28 6.89543 28 8V14C28 15.1046 28.8954 16 30 16H40C41.1046 16 42 15.1046 42 14V8C42 6.89543 41.1046 6 40 6Z" stroke="white" stroke-width="3" stroke-linecap="round" stroke-linejoin="round"/>
<path d="M40 24H30C28.8954 24 28 24.8954 28 26V40C28 41.1046 28.8954 42 30 42H40C41.1046 42 42 41.1046 42 40V26C42 24.8954 41.1046 24 40 24Z" stroke="white" stroke-width="3" stroke-linecap="round" stroke-linejoin="round"/>
<path d="M18 32H8C6.89543 32 6 32.8954 6 34V40C6 41.1046 6.89543 42 8 42H18C19.1046 42 20 41.1046 20 40V34C20 32.8954 19.1046 32 18 32Z" stroke="white" stroke-width="3" stroke-linecap="round" stroke-linejoin="round"/>
</svg>
