<svg width="250" height="48" viewBox="0 0 250 48" fill="none" xmlns="http://www.w3.org/2000/svg">
<path d="M18 6H8C6.89543 6 6 6.89543 6 8V22C6 23.1046 6.89543 24 8 24H18C19.1046 24 20 23.1046 20 22V8C20 6.89543 19.1046 6 18 6Z" stroke="white" stroke-width="3" stroke-linecap="round" stroke-linejoin="round"/>
<path d="M40 6H30C28.8954 6 28 6.89543 28 8V14C28 15.1046 28.8954 16 30 16H40C41.1046 16 42 15.1046 42 14V8C42 6.89543 41.1046 6 40 6Z" stroke="white" stroke-width="3" stroke-linecap="round" stroke-linejoin="round"/>
<path d="M40 24H30C28.8954 24 28 24.8954 28 26V40C28 41.1046 28.8954 42 30 42H40C41.1046 42 42 41.1046 42 40V26C42 24.8954 41.1046 24 40 24Z" stroke="white" stroke-width="3" stroke-linecap="round" stroke-linejoin="round"/>
<path d="M18 32H8C6.89543 32 6 32.8954 6 34V40C6 41.1046 6.89543 42 8 42H18C19.1046 42 20 41.1046 20 40V34C20 32.8954 19.1046 32 18 32Z" stroke="white" stroke-width="3" stroke-linecap="round" stroke-linejoin="round"/>
<path d="M84.9 24.54C84.9 26.66 84.5467 28.6067 83.84 30.38C83.1333 32.1533 82.14 33.68 80.86 34.96C79.58 36.24 78.04 37.2333 76.24 37.94C74.44 38.6467 72.44 39 70.24 39H59.22V10.08H70.24C72.44 10.08 74.44 10.44 76.24 11.16C78.04 11.8667 79.58 12.86 80.86 14.14C82.14 15.4067 83.1333 16.9267 83.84 18.7C84.5467 20.4733 84.9 22.42 84.9 24.54ZM79.38 24.54C79.38 22.9533 79.1667 21.5333 78.74 20.28C78.3267 19.0133 77.72 17.9467 76.92 17.08C76.1333 16.2 75.1733 15.5267 74.04 15.06C72.92 14.5933 71.6533 14.36 70.24 14.36H64.62V34.72H70.24C71.6533 34.72 72.92 34.4867 74.04 34.02C75.1733 33.5533 76.1333 32.8867 76.92 32.02C77.72 31.14 78.3267 30.0733 78.74 28.82C79.1667 27.5533 79.38 26.1267 79.38 24.54ZM99.2019 30.24C97.7752 30.3067 96.5752 30.4333 95.6019 30.62C94.6285 30.7933 93.8485 31.02 93.2619 31.3C92.6752 31.58 92.2552 31.9067 92.0019 32.28C91.7485 32.6533 91.6219 33.06 91.6219 33.5C91.6219 34.3667 91.8752 34.9867 92.3819 35.36C92.9019 35.7333 93.5752 35.92 94.4019 35.92C95.4152 35.92 96.2885 35.74 97.0219 35.38C97.7685 35.0067 98.4952 34.4467 99.2019 33.7V30.24ZM87.8819 21.34C90.2419 19.18 93.0819 18.1 96.4019 18.1C97.6019 18.1 98.6752 18.3 99.6219 18.7C100.569 19.0867 101.369 19.6333 102.022 20.34C102.675 21.0333 103.169 21.8667 103.502 22.84C103.849 23.8133 104.022 24.88 104.022 26.04V39H101.782C101.315 39 100.955 38.9333 100.702 38.8C100.449 38.6533 100.249 38.3667 100.102 37.94L99.6619 36.46C99.1419 36.9267 98.6352 37.34 98.1419 37.7C97.6485 38.0467 97.1352 38.34 96.6019 38.58C96.0685 38.82 95.4952 39 94.8819 39.12C94.2819 39.2533 93.6152 39.32 92.8819 39.32C92.0152 39.32 91.2152 39.2067 90.4819 38.98C89.7485 38.74 89.1152 38.3867 88.5819 37.92C88.0485 37.4533 87.6352 36.8733 87.3419 36.18C87.0485 35.4867 86.9019 34.68 86.9019 33.76C86.9019 33.24 86.9885 32.7267 87.1619 32.22C87.3352 31.7 87.6152 31.2067 88.0019 30.74C88.4019 30.2733 88.9152 29.8333 89.5419 29.42C90.1685 29.0067 90.9352 28.6467 91.8419 28.34C92.7619 28.0333 93.8285 27.7867 95.0419 27.6C96.2552 27.4 97.6419 27.28 99.2019 27.24V26.04C99.2019 24.6667 98.9085 23.6533 98.3219 23C97.7352 22.3333 96.8885 22 95.7819 22C94.9819 22 94.3152 22.0933 93.7819 22.28C93.2619 22.4667 92.8019 22.68 92.4019 22.92C92.0019 23.1467 91.6352 23.3533 91.3019 23.54C90.9819 23.7267 90.6219 23.82 90.2219 23.82C89.8752 23.82 89.5819 23.7333 89.3419 23.56C89.1019 23.3733 88.9085 23.16 88.7619 22.92L87.8819 21.34ZM121.194 22.48C121.061 22.6933 120.921 22.8467 120.774 22.94C120.628 23.02 120.441 23.06 120.214 23.06C119.974 23.06 119.714 22.9933 119.434 22.86C119.168 22.7267 118.854 22.58 118.494 22.42C118.134 22.2467 117.721 22.0933 117.254 21.96C116.801 21.8267 116.261 21.76 115.634 21.76C114.661 21.76 113.894 21.9667 113.334 22.38C112.788 22.7933 112.514 23.3333 112.514 24C112.514 24.44 112.654 24.8133 112.934 25.12C113.228 25.4133 113.608 25.6733 114.074 25.9C114.554 26.1267 115.094 26.3333 115.694 26.52C116.294 26.6933 116.901 26.8867 117.514 27.1C118.141 27.3133 118.754 27.56 119.354 27.84C119.954 28.1067 120.488 28.4533 120.954 28.88C121.434 29.2933 121.814 29.7933 122.094 30.38C122.388 30.9667 122.534 31.6733 122.534 32.5C122.534 33.4867 122.354 34.4 121.994 35.24C121.648 36.0667 121.128 36.7867 120.434 37.4C119.741 38 118.881 38.4733 117.854 38.82C116.841 39.1533 115.668 39.32 114.334 39.32C113.628 39.32 112.934 39.2533 112.254 39.12C111.588 39 110.941 38.8267 110.314 38.6C109.701 38.3733 109.128 38.1067 108.594 37.8C108.074 37.4933 107.614 37.16 107.214 36.8L108.354 34.92C108.501 34.6933 108.674 34.52 108.874 34.4C109.074 34.28 109.328 34.22 109.634 34.22C109.941 34.22 110.228 34.3067 110.494 34.48C110.774 34.6533 111.094 34.84 111.454 35.04C111.814 35.24 112.234 35.4267 112.714 35.6C113.208 35.7733 113.828 35.86 114.574 35.86C115.161 35.86 115.661 35.7933 116.074 35.66C116.501 35.5133 116.848 35.3267 117.114 35.1C117.394 34.8733 117.594 34.6133 117.714 34.32C117.848 34.0133 117.914 33.7 117.914 33.38C117.914 32.9 117.768 32.5067 117.474 32.2C117.194 31.8933 116.814 31.6267 116.334 31.4C115.868 31.1733 115.328 30.9733 114.714 30.8C114.114 30.6133 113.494 30.4133 112.854 30.2C112.228 29.9867 111.608 29.74 110.994 29.46C110.394 29.1667 109.854 28.8 109.374 28.36C108.908 27.92 108.528 27.38 108.234 26.74C107.954 26.1 107.814 25.3267 107.814 24.42C107.814 23.58 107.981 22.78 108.314 22.02C108.648 21.26 109.134 20.6 109.774 20.04C110.428 19.4667 111.234 19.0133 112.194 18.68C113.168 18.3333 114.288 18.16 115.554 18.16C116.968 18.16 118.254 18.3933 119.414 18.86C120.574 19.3267 121.541 19.94 122.314 20.7L121.194 22.48ZM131.193 20.68C131.993 19.9333 132.873 19.3267 133.833 18.86C134.793 18.3933 135.919 18.16 137.213 18.16C138.333 18.16 139.326 18.3533 140.193 18.74C141.059 19.1133 141.779 19.6467 142.353 20.34C142.939 21.02 143.379 21.84 143.673 22.8C143.979 23.7467 144.133 24.7933 144.133 25.94V39H139.193V25.94C139.193 24.6867 138.906 23.72 138.333 23.04C137.759 22.3467 136.886 22 135.713 22C134.859 22 134.059 22.1933 133.313 22.58C132.566 22.9667 131.859 23.4933 131.193 24.16V39H126.253V9.28H131.193V20.68ZM153.771 33.68C154.331 34.36 154.937 34.84 155.591 35.12C156.257 35.4 156.957 35.54 157.691 35.54C158.451 35.54 159.131 35.4067 159.731 35.14C160.344 34.86 160.864 34.4333 161.291 33.86C161.717 33.2733 162.044 32.5333 162.271 31.64C162.497 30.7333 162.611 29.6533 162.611 28.4C162.611 26.1467 162.237 24.52 161.491 23.52C160.744 22.5067 159.671 22 158.271 22C157.324 22 156.497 22.22 155.791 22.66C155.084 23.0867 154.411 23.6933 153.771 24.48V33.68ZM153.771 21C154.597 20.1333 155.511 19.4467 156.511 18.94C157.524 18.42 158.677 18.16 159.971 18.16C161.157 18.16 162.224 18.3933 163.171 18.86C164.131 19.3267 164.944 20 165.611 20.88C166.291 21.7467 166.811 22.8 167.171 24.04C167.531 25.28 167.711 26.6733 167.711 28.22C167.711 29.8867 167.504 31.4 167.091 32.76C166.677 34.12 166.084 35.2867 165.311 36.26C164.551 37.22 163.631 37.9667 162.551 38.5C161.471 39.0333 160.271 39.3 158.951 39.3C158.311 39.3 157.731 39.2333 157.211 39.1C156.691 38.98 156.211 38.8067 155.771 38.58C155.331 38.3533 154.924 38.08 154.551 37.76C154.191 37.4267 153.844 37.06 153.511 36.66L153.291 38.04C153.211 38.3867 153.071 38.6333 152.871 38.78C152.684 38.9267 152.424 39 152.091 39H148.831V9.28H153.771V21ZM180.606 18.16C182.126 18.16 183.506 18.4067 184.746 18.9C185.999 19.3933 187.066 20.0933 187.946 21C188.839 21.9067 189.526 23.0133 190.006 24.32C190.486 25.6267 190.726 27.0867 190.726 28.7C190.726 30.3267 190.486 31.7933 190.006 33.1C189.526 34.4067 188.839 35.52 187.946 36.44C187.066 37.36 185.999 38.0667 184.746 38.56C183.506 39.0533 182.126 39.3 180.606 39.3C179.073 39.3 177.679 39.0533 176.426 38.56C175.173 38.0667 174.099 37.36 173.206 36.44C172.326 35.52 171.639 34.4067 171.146 33.1C170.666 31.7933 170.426 30.3267 170.426 28.7C170.426 27.0867 170.666 25.6267 171.146 24.32C171.639 23.0133 172.326 21.9067 173.206 21C174.099 20.0933 175.173 19.3933 176.426 18.9C177.679 18.4067 179.073 18.16 180.606 18.16ZM180.606 35.5C182.313 35.5 183.573 34.9267 184.386 33.78C185.213 32.6333 185.626 30.9533 185.626 28.74C185.626 26.5267 185.213 24.84 184.386 23.68C183.573 22.52 182.313 21.94 180.606 21.94C178.873 21.94 177.586 22.5267 176.746 23.7C175.919 24.86 175.506 26.54 175.506 28.74C175.506 30.94 175.919 32.62 176.746 33.78C177.586 34.9267 178.873 35.5 180.606 35.5ZM205.335 30.24C203.908 30.3067 202.708 30.4333 201.735 30.62C200.761 30.7933 199.981 31.02 199.395 31.3C198.808 31.58 198.388 31.9067 198.135 32.28C197.881 32.6533 197.755 33.06 197.755 33.5C197.755 34.3667 198.008 34.9867 198.515 35.36C199.035 35.7333 199.708 35.92 200.535 35.92C201.548 35.92 202.421 35.74 203.155 35.38C203.901 35.0067 204.628 34.4467 205.335 33.7V30.24ZM194.015 21.34C196.375 19.18 199.215 18.1 202.535 18.1C203.735 18.1 204.808 18.3 205.755 18.7C206.701 19.0867 207.501 19.6333 208.155 20.34C208.808 21.0333 209.301 21.8667 209.635 22.84C209.981 23.8133 210.155 24.88 210.155 26.04V39H207.915C207.448 39 207.088 38.9333 206.835 38.8C206.581 38.6533 206.381 38.3667 206.235 37.94L205.795 36.46C205.275 36.9267 204.768 37.34 204.275 37.7C203.781 38.0467 203.268 38.34 202.735 38.58C202.201 38.82 201.628 39 201.015 39.12C200.415 39.2533 199.748 39.32 199.015 39.32C198.148 39.32 197.348 39.2067 196.615 38.98C195.881 38.74 195.248 38.3867 194.715 37.92C194.181 37.4533 193.768 36.8733 193.475 36.18C193.181 35.4867 193.035 34.68 193.035 33.76C193.035 33.24 193.121 32.7267 193.295 32.22C193.468 31.7 193.748 31.2067 194.135 30.74C194.535 30.2733 195.048 29.8333 195.675 29.42C196.301 29.0067 197.068 28.6467 197.975 28.34C198.895 28.0333 199.961 27.7867 201.175 27.6C202.388 27.4 203.775 27.28 205.335 27.24V26.04C205.335 24.6667 205.041 23.6533 204.455 23C203.868 22.3333 203.021 22 201.915 22C201.115 22 200.448 22.0933 199.915 22.28C199.395 22.4667 198.935 22.68 198.535 22.92C198.135 23.1467 197.768 23.3533 197.435 23.54C197.115 23.7267 196.755 23.82 196.355 23.82C196.008 23.82 195.715 23.7333 195.475 23.56C195.235 23.3733 195.041 23.16 194.895 22.92L194.015 21.34ZM219.467 22.04C220.107 20.8133 220.867 19.8533 221.747 19.16C222.627 18.4533 223.667 18.1 224.867 18.1C225.814 18.1 226.574 18.3067 227.147 18.72L226.827 22.42C226.761 22.66 226.661 22.8333 226.527 22.94C226.407 23.0333 226.241 23.08 226.027 23.08C225.827 23.08 225.527 23.0467 225.127 22.98C224.741 22.9133 224.361 22.88 223.987 22.88C223.441 22.88 222.954 22.96 222.527 23.12C222.101 23.28 221.714 23.5133 221.367 23.82C221.034 24.1133 220.734 24.4733 220.467 24.9C220.214 25.3267 219.974 25.8133 219.747 26.36V39H214.807V18.48H217.707C218.214 18.48 218.567 18.5733 218.767 18.76C218.967 18.9333 219.101 19.2533 219.167 19.72L219.467 22.04ZM242.062 23.72C241.502 23.04 240.889 22.56 240.222 22.28C239.569 22 238.862 21.86 238.102 21.86C237.356 21.86 236.682 22 236.082 22.28C235.482 22.56 234.969 22.9867 234.542 23.56C234.116 24.12 233.789 24.84 233.562 25.72C233.336 26.5867 233.222 27.6133 233.222 28.8C233.222 30 233.316 31.02 233.502 31.86C233.702 32.6867 233.982 33.3667 234.342 33.9C234.702 34.42 235.142 34.8 235.662 35.04C236.182 35.2667 236.762 35.38 237.402 35.38C238.429 35.38 239.302 35.1667 240.022 34.74C240.742 34.3133 241.422 33.7067 242.062 32.92V23.72ZM247.002 9.28V39H243.982C243.329 39 242.916 38.7 242.742 38.1L242.322 36.12C241.496 37.0667 240.542 37.8333 239.462 38.42C238.396 39.0067 237.149 39.3 235.722 39.3C234.602 39.3 233.576 39.0667 232.642 38.6C231.709 38.1333 230.902 37.46 230.222 36.58C229.556 35.6867 229.036 34.5867 228.662 33.28C228.302 31.9733 228.122 30.48 228.122 28.8C228.122 27.28 228.329 25.8667 228.742 24.56C229.156 23.2533 229.749 22.12 230.522 21.16C231.296 20.2 232.222 19.4533 233.302 18.92C234.382 18.3733 235.596 18.1 236.942 18.1C238.089 18.1 239.069 18.28 239.882 18.64C240.696 19 241.422 19.4867 242.062 20.1V9.28H247.002Z" fill="white"/>
</svg>
