<svg width="198" height="38" viewBox="0 0 198 38" fill="none" xmlns="http://www.w3.org/2000/svg">
<circle cx="19" cy="19" r="19" fill="#01589A"/>
<path d="M14.8636 13.3636H16.2727V21.6818C16.2727 22.4242 16.1364 23.0549 15.8636 23.5739C15.5909 24.0928 15.2064 24.4867 14.7102 24.7557C14.214 25.0246 13.6288 25.1591 12.9545 25.1591C12.3182 25.1591 11.7519 25.0436 11.2557 24.8125C10.7595 24.5777 10.3693 24.2443 10.0852 23.8125C9.80114 23.3807 9.65909 22.8674 9.65909 22.2727H11.0455C11.0455 22.6023 11.1269 22.8902 11.2898 23.1364C11.4564 23.3788 11.6837 23.5682 11.9716 23.7045C12.2595 23.8409 12.5871 23.9091 12.9545 23.9091C13.3598 23.9091 13.7045 23.8239 13.9886 23.6534C14.2727 23.483 14.4886 23.233 14.6364 22.9034C14.7879 22.5701 14.8636 22.1629 14.8636 21.6818V13.3636ZM22.6875 25H19.0966V13.3636H22.8466C23.9754 13.3636 24.9413 13.5966 25.7443 14.0625C26.5473 14.5246 27.1629 15.1894 27.5909 16.0568C28.0189 16.9205 28.233 17.9545 28.233 19.1591C28.233 20.3712 28.017 21.4148 27.5852 22.2898C27.1534 23.161 26.5246 23.8314 25.6989 24.3011C24.8731 24.767 23.8693 25 22.6875 25ZM20.5057 23.75H22.5966C23.5587 23.75 24.3561 23.5644 24.9886 23.1932C25.6212 22.822 26.0928 22.2936 26.4034 21.608C26.714 20.9223 26.8693 20.1061 26.8693 19.1591C26.8693 18.2197 26.7159 17.411 26.4091 16.733C26.1023 16.0511 25.6439 15.5284 25.0341 15.1648C24.4242 14.7973 23.6648 14.6136 22.7557 14.6136H20.5057V23.75Z" fill="white"/>
<path d="M59.8636 13.3636H61.2727V21.6818C61.2727 22.4242 61.1364 23.0549 60.8636 23.5739C60.5909 24.0928 60.2064 24.4867 59.7102 24.7557C59.214 25.0246 58.6288 25.1591 57.9545 25.1591C57.3182 25.1591 56.7519 25.0436 56.2557 24.8125C55.7595 24.5777 55.3693 24.2443 55.0852 23.8125C54.8011 23.3807 54.6591 22.8674 54.6591 22.2727H56.0455C56.0455 22.6023 56.1269 22.8902 56.2898 23.1364C56.4564 23.3788 56.6837 23.5682 56.9716 23.7045C57.2595 23.8409 57.5871 23.9091 57.9545 23.9091C58.3598 23.9091 58.7045 23.8239 58.9886 23.6534C59.2727 23.483 59.4886 23.233 59.6364 22.9034C59.7879 22.5701 59.8636 22.1629 59.8636 21.6818V13.3636ZM67.4602 25.1818C66.6723 25.1818 65.9811 24.9943 65.3864 24.6193C64.7955 24.2443 64.3333 23.7197 64 23.0455C63.6705 22.3712 63.5057 21.5833 63.5057 20.6818C63.5057 19.7727 63.6705 18.9792 64 18.3011C64.3333 17.6231 64.7955 17.0966 65.3864 16.7216C65.9811 16.3466 66.6723 16.1591 67.4602 16.1591C68.2481 16.1591 68.9375 16.3466 69.5284 16.7216C70.1231 17.0966 70.5852 17.6231 70.9148 18.3011C71.2481 18.9792 71.4148 19.7727 71.4148 20.6818C71.4148 21.5833 71.2481 22.3712 70.9148 23.0455C70.5852 23.7197 70.1231 24.2443 69.5284 24.6193C68.9375 24.9943 68.2481 25.1818 67.4602 25.1818ZM67.4602 23.9773C68.0587 23.9773 68.5511 23.8239 68.9375 23.517C69.3239 23.2102 69.6098 22.8068 69.7955 22.3068C69.9811 21.8068 70.0739 21.2652 70.0739 20.6818C70.0739 20.0985 69.9811 19.5549 69.7955 19.0511C69.6098 18.5473 69.3239 18.1402 68.9375 17.8295C68.5511 17.5189 68.0587 17.3636 67.4602 17.3636C66.8617 17.3636 66.3693 17.5189 65.983 17.8295C65.5966 18.1402 65.3106 18.5473 65.125 19.0511C64.9394 19.5549 64.8466 20.0985 64.8466 20.6818C64.8466 21.2652 64.9394 21.8068 65.125 22.3068C65.3106 22.8068 65.5966 23.2102 65.983 23.517C66.3693 23.8239 66.8617 23.9773 67.4602 23.9773ZM74.8026 19.75V25H73.4616V13.3636H74.8026V17.6364H74.9162C75.1207 17.1856 75.4276 16.8277 75.8366 16.5625C76.2495 16.2936 76.7988 16.1591 77.4844 16.1591C78.0791 16.1591 78.5999 16.2784 79.0469 16.517C79.4938 16.7519 79.8404 17.1136 80.0866 17.6023C80.3366 18.0871 80.4616 18.7045 80.4616 19.4545V25H79.1207V19.5455C79.1207 18.8523 78.9408 18.3163 78.581 17.9375C78.2249 17.5549 77.7306 17.3636 77.098 17.3636C76.6586 17.3636 76.2647 17.4564 75.9162 17.642C75.5715 17.8277 75.2988 18.0985 75.098 18.4545C74.901 18.8106 74.8026 19.2424 74.8026 19.75ZM84.2557 19.75V25H82.9148V16.2727H84.2102V17.6364H84.3239C84.5284 17.1932 84.839 16.8371 85.2557 16.5682C85.6723 16.2955 86.2102 16.1591 86.8693 16.1591C87.4602 16.1591 87.9773 16.2803 88.4205 16.5227C88.8636 16.7614 89.2083 17.125 89.4545 17.6136C89.7008 18.0985 89.8239 18.7121 89.8239 19.4545V25H88.483V19.5455C88.483 18.8598 88.3049 18.3258 87.9489 17.9432C87.5928 17.5568 87.1042 17.3636 86.483 17.3636C86.0549 17.3636 85.6723 17.4564 85.3352 17.642C85.0019 17.8277 84.7386 18.0985 84.5455 18.4545C84.3523 18.8106 84.2557 19.2424 84.2557 19.75ZM100.547 25H96.956V13.3636H100.706C101.835 13.3636 102.801 13.5966 103.604 14.0625C104.407 14.5246 105.022 15.1894 105.45 16.0568C105.878 16.9205 106.092 17.9545 106.092 19.1591C106.092 20.3712 105.876 21.4148 105.445 22.2898C105.013 23.161 104.384 23.8314 103.558 24.3011C102.732 24.767 101.729 25 100.547 25ZM98.3651 23.75H100.456C101.418 23.75 102.215 23.5644 102.848 23.1932C103.481 22.822 103.952 22.2936 104.263 21.608C104.573 20.9223 104.729 20.1061 104.729 19.1591C104.729 18.2197 104.575 17.411 104.268 16.733C103.962 16.0511 103.503 15.5284 102.893 15.1648C102.284 14.7973 101.524 14.6136 100.615 14.6136H98.3651V23.75ZM111.82 25.1818C111.032 25.1818 110.34 24.9943 109.746 24.6193C109.155 24.2443 108.693 23.7197 108.359 23.0455C108.03 22.3712 107.865 21.5833 107.865 20.6818C107.865 19.7727 108.03 18.9792 108.359 18.3011C108.693 17.6231 109.155 17.0966 109.746 16.7216C110.34 16.3466 111.032 16.1591 111.82 16.1591C112.607 16.1591 113.297 16.3466 113.888 16.7216C114.482 17.0966 114.945 17.6231 115.274 18.3011C115.607 18.9792 115.774 19.7727 115.774 20.6818C115.774 21.5833 115.607 22.3712 115.274 23.0455C114.945 23.7197 114.482 24.2443 113.888 24.6193C113.297 24.9943 112.607 25.1818 111.82 25.1818ZM111.82 23.9773C112.418 23.9773 112.911 23.8239 113.297 23.517C113.683 23.2102 113.969 22.8068 114.155 22.3068C114.34 21.8068 114.433 21.2652 114.433 20.6818C114.433 20.0985 114.34 19.5549 114.155 19.0511C113.969 18.5473 113.683 18.1402 113.297 17.8295C112.911 17.5189 112.418 17.3636 111.82 17.3636C111.221 17.3636 110.729 17.5189 110.342 17.8295C109.956 18.1402 109.67 18.5473 109.484 19.0511C109.299 19.5549 109.206 20.0985 109.206 20.6818C109.206 21.2652 109.299 21.8068 109.484 22.3068C109.67 22.8068 109.956 23.2102 110.342 23.517C110.729 23.8239 111.221 23.9773 111.82 23.9773ZM121.48 25.1818C120.639 25.1818 119.914 24.9962 119.304 24.625C118.698 24.25 118.23 23.7273 117.901 23.0568C117.575 22.3826 117.412 21.5985 117.412 20.7045C117.412 19.8106 117.575 19.0227 117.901 18.3409C118.23 17.6553 118.688 17.1212 119.276 16.7386C119.866 16.3523 120.556 16.1591 121.344 16.1591C121.798 16.1591 122.247 16.2348 122.69 16.3864C123.134 16.5379 123.537 16.7841 123.901 17.125C124.264 17.4621 124.554 17.9091 124.77 18.4659C124.986 19.0227 125.094 19.7083 125.094 20.5227V21.0909H118.366V19.9318H123.73C123.73 19.4394 123.632 19 123.435 18.6136C123.241 18.2273 122.965 17.9223 122.605 17.6989C122.249 17.4754 121.829 17.3636 121.344 17.3636C120.81 17.3636 120.348 17.4962 119.957 17.7614C119.571 18.0227 119.274 18.3636 119.065 18.7841C118.857 19.2045 118.753 19.6553 118.753 20.1364V20.9091C118.753 21.5682 118.866 22.1269 119.094 22.5852C119.325 23.0398 119.645 23.3864 120.054 23.625C120.463 23.8598 120.938 23.9773 121.48 23.9773C121.832 23.9773 122.151 23.928 122.435 23.8295C122.723 23.7273 122.971 23.5758 123.179 23.375C123.387 23.1705 123.548 22.9167 123.662 22.6136L124.957 22.9773C124.821 23.4167 124.592 23.803 124.27 24.1364C123.948 24.4659 123.55 24.7235 123.077 24.9091C122.603 25.0909 122.071 25.1818 121.48 25.1818Z" fill="black"/>
<path d="M178.22 15.4697C178.513 15.1768 178.987 15.1768 179.28 15.4697L186 22.1893L192.72 15.4697C193.013 15.1768 193.487 15.1768 193.78 15.4697C194.073 15.7626 194.073 16.2374 193.78 16.5303L186.53 23.7803C186.237 24.0732 185.763 24.0732 185.47 23.7803L178.22 16.5303C177.927 16.2374 177.927 15.7626 178.22 15.4697Z" fill="#666666"/>
</svg>
