<svg width="67" height="67" viewBox="0 0 67 67" fill="none" xmlns="http://www.w3.org/2000/svg">
<path d="M0 8.00415C0 3.58587 3.58172 0.00415039 8 0.00415039H58.6581C63.0764 0.00415039 66.6581 3.58587 66.6581 8.00415V58.6625C66.6581 63.0808 63.0764 66.6625 58.6581 66.6625H8C3.58172 66.6625 0 63.0808 0 58.6625V8.00415Z" fill="#49AA19"/>
<path d="M36.302 10.0049C35.8291 9.99086 35.3706 10.1689 35.0311 10.4984C34.6916 10.828 34.5 11.281 34.5 11.7542V30.412C34.5 31.3787 35.2835 32.162 36.25 32.162H54.908C55.3812 32.162 55.8341 31.9705 56.1636 31.631C56.4933 31.2915 56.6713 30.833 56.6573 30.36C56.3272 19.2666 47.3956 10.3351 36.302 10.0049ZM38 28.6622V13.6496C45.7982 14.6884 51.9739 20.864 53.0127 28.6622H38ZM31 16.4909C31 15.9994 30.7933 15.5307 30.4307 15.1991C30.0678 14.8676 29.5825 14.7039 29.093 14.748C18.3878 15.7127 10 24.707 10 35.6625C10 47.2603 19.402 56.6625 31 56.6625C41.9555 56.6625 50.9498 48.2747 51.9144 37.5695C51.9585 37.08 51.7949 36.5947 51.4633 36.2318C51.1318 35.869 50.663 35.6625 50.1716 35.6625H31V16.4909ZM13.5 35.6625C13.5 27.1964 19.5128 20.133 27.5 18.5122V37.4125C27.5 38.379 28.2835 39.1625 29.25 39.1625H48.1502C46.5295 47.1495 39.466 53.1625 31 53.1625C21.335 53.1625 13.5 45.3274 13.5 35.6625Z" fill="white"/>
</svg>
