<svg width="56" height="57" viewBox="0 0 56 57" fill="none" xmlns="http://www.w3.org/2000/svg">
<path d="M0 8.00001C0 3.58173 3.58172 0 8 0H48C52.4183 0 56 3.58172 56 8V48.6667C56 53.0849 52.4183 56.6667 48 56.6667H8C3.58172 56.6667 0 53.0849 0 48.6667V8.00001Z" fill="#D89614"/>
<path d="M28.0013 15.5C22.3704 15.5 17.7739 19.9332 17.513 25.4986C17.4693 26.4321 16.6996 27.1667 15.765 27.1667H15.168C11.302 27.1667 8.16797 30.3006 8.16797 34.1667C8.16797 38.0328 11.302 41.1667 15.168 41.1667H40.8346C44.7007 41.1667 47.8346 38.0328 47.8346 34.1667C47.8346 30.3006 44.7007 27.1667 40.8346 27.1667H40.2378C39.303 27.1667 38.5333 26.4321 38.4896 25.4986C38.2288 19.9332 33.6321 15.5 28.0013 15.5ZM14.1875 23.7118C15.2802 17.0677 21.0485 12 28.0013 12C34.9542 12 40.7224 17.0677 41.8151 23.7118C47.1545 24.2063 51.3346 28.6983 51.3346 34.1667C51.3346 39.9657 46.6337 44.6667 40.8346 44.6667H15.168C9.36898 44.6667 4.66797 39.9657 4.66797 34.1667C4.66797 28.6983 8.84825 24.2063 14.1875 23.7118Z" fill="white"/>
</svg>
